<svg width="84" height="47" viewBox="0 0 84 47" fill="none" xmlns="http://www.w3.org/2000/svg">
<path d="M0.160001 4.84799C0.160001 3.65333 0.586667 2.65066 1.44 1.83999C2.336 1.02932 3.36 0.623991 4.512 0.623991C5.74933 0.623991 6.77333 1.02932 7.584 1.83999C8.43734 2.65066 8.864 3.65333 8.864 4.84799C8.864 5.99999 8.43734 7.00266 7.584 7.85599C6.77333 8.66666 5.74933 9.07199 4.512 9.07199C3.36 9.07199 2.336 8.66666 1.44 7.85599C0.586667 7.00266 0.160001 5.99999 0.160001 4.84799ZM1.12 16.56H7.904V46H1.12V16.56ZM20.36 23.6C20.36 26.7573 21.064 29.5307 22.472 31.92C23.9227 34.3093 25.8 36.1653 28.104 37.488C30.4507 38.768 32.9893 39.408 35.72 39.408C37.8533 39.408 39.7733 39.1307 41.48 38.576C43.1867 38.0213 44.7227 37.2747 46.088 36.336C47.496 35.3547 48.712 34.2667 49.736 33.072V42.032C47.8587 43.568 45.832 44.7413 43.656 45.552C41.48 46.3627 38.7493 46.768 35.464 46.768C32.1787 46.768 29.1067 46.2133 26.248 45.104C23.432 43.9947 20.9787 42.3947 18.888 40.304C16.7973 38.2133 15.1547 35.76 13.96 32.944C12.808 30.0853 12.232 26.9707 12.232 23.6C12.232 20.2293 12.808 17.136 13.96 14.32C15.1547 11.4613 16.7973 8.98666 18.888 6.896C20.9787 4.80533 23.432 3.20533 26.248 2.09599C29.1067 0.98666 32.1787 0.431994 35.464 0.431994C38.7493 0.431994 41.48 0.837327 43.656 1.64799C45.832 2.45866 47.8587 3.63199 49.736 5.16799V14.128C48.712 12.9333 47.496 11.8667 46.088 10.928C44.7227 9.94666 43.1867 9.17866 41.48 8.62399C39.7733 8.06933 37.8533 7.792 35.72 7.792C32.9893 7.792 30.4507 8.45333 28.104 9.77599C25.8 11.056 23.9227 12.8907 22.472 15.28C21.064 17.6267 20.36 20.4 20.36 23.6ZM68.066 46.64C65.0793 46.64 62.434 46 60.13 44.72C57.8687 43.44 56.1193 41.648 54.882 39.344C53.6447 37.04 53.026 34.352 53.026 31.28C53.026 28.1653 53.6447 25.456 54.882 23.152C56.162 20.848 57.954 19.0773 60.258 17.84C62.562 16.56 65.2713 15.92 68.386 15.92C71.5007 15.92 74.146 16.5173 76.322 17.712C78.498 18.9067 80.162 20.6347 81.314 22.896C82.5087 25.1147 83.106 27.8027 83.106 30.96C83.106 31.3013 83.0847 31.664 83.042 32.048C83.042 32.432 83.0207 32.7093 82.978 32.88H57.122V28.144H77.09L74.978 31.088C75.106 30.832 75.234 30.4907 75.362 30.064C75.5327 29.5947 75.618 29.2107 75.618 28.912C75.618 27.3333 75.298 25.968 74.658 24.816C74.0607 23.664 73.2073 22.768 72.098 22.128C71.0313 21.488 69.7727 21.168 68.322 21.168C66.5727 21.168 65.0793 21.552 63.842 22.32C62.6047 23.088 61.666 24.1973 61.026 25.648C60.386 27.0987 60.0447 28.8907 60.002 31.024C60.002 33.1573 60.322 34.9707 60.962 36.464C61.602 37.9147 62.5407 39.024 63.778 39.792C65.058 40.56 66.594 40.944 68.386 40.944C70.2633 40.944 71.906 40.56 73.314 39.792C74.722 39.024 75.8953 37.8507 76.834 36.272L82.786 38.704C81.25 41.3493 79.266 43.3333 76.834 44.656C74.402 45.9787 71.4793 46.64 68.066 46.64Z" fill="url(#paint0_linear_108_25)"/>
<defs>
<linearGradient id="paint0_linear_108_25" x1="40.8" y1="-2" x2="40.8" y2="46" gradientUnits="userSpaceOnUse">
<stop stop-color="#3588D4"/>
<stop offset="1" stop-color="#3EA9B9"/>
</linearGradient>
</defs>
</svg>
